<svg version="1.1" id="Layer_1" xmlns="http://www.w3.org/2000/svg" xmlns:xlink="http://www.w3.org/1999/xlink" x="0px" y="0px"
	 width="100%" viewBox="0 0 500 500" enable-background="new 0 0 500 500" xml:space="preserve">
<path fill="#000000" opacity="1.000000" stroke="none" 
	d="
M244.000000,501.000000 
	C162.666687,501.000000 81.833374,501.000000 1.000043,501.000000 
	C1.000029,334.333405 1.000029,167.666779 1.000014,1.000133 
	C167.666565,1.000089 334.333130,1.000089 500.999756,1.000044 
	C500.999847,167.666519 500.999847,334.333038 500.999939,500.999786 
	C415.500000,501.000000 330.000000,501.000000 244.000000,501.000000 
M367.638885,235.210861 
	C365.974304,235.253525 364.309753,235.333481 362.645172,235.333527 
	C269.523285,235.336227 176.401413,235.332077 83.279533,235.330307 
	C81.780540,235.330276 80.274773,235.262680 78.783661,235.376785 
	C70.072845,236.043350 62.882038,243.259933 63.010006,251.155579 
	C63.136581,258.965332 69.957321,266.185608 78.558899,266.449036 
	C90.363434,266.810577 102.191338,266.409241 114.926430,266.538544 
	C115.923332,266.579803 116.920235,266.657074 117.917137,266.657166 
	C194.448364,266.663696 270.979584,266.665955 347.510803,266.651276 
	C348.999420,266.651001 350.487976,266.445374 352.894318,266.540649 
	C357.987823,266.586639 363.081329,266.632629 368.156311,267.364471 
	C368.154297,267.593170 368.152283,267.821869 367.653320,268.502899 
	C366.123657,270.036102 364.595673,271.570984 363.064117,273.102295 
	C327.711548,308.447418 292.306580,343.740570 257.106598,379.237000 
	C254.354904,382.011902 251.991638,386.009064 251.277374,389.784271 
	C249.989700,396.590088 254.178650,403.145477 260.209015,406.095123 
	C265.652283,408.757629 273.208649,407.128265 278.491119,401.851746 
	C324.825684,355.568817 371.137726,309.263336 417.417206,262.925385 
	C424.212921,256.121063 424.344543,246.003586 417.619629,239.267960 
	C371.351379,192.926147 325.060486,146.606598 278.603607,100.454308 
	C275.956970,97.825020 271.959045,95.804893 268.287628,95.118423 
	C261.184265,93.790260 254.825653,98.051964 251.576859,105.028389 
	C249.301407,109.914719 251.385056,117.204979 256.775360,122.597176 
	C293.887268,159.722122 331.023224,196.823029 368.383087,234.474945 
	C368.468475,234.652328 368.553864,234.829697 367.638885,235.210861 
z"/>
<path fill="#367860" opacity="1.000000" stroke="none" 
	d="
M114.009224,266.334778 
	C102.191338,266.409241 90.363434,266.810577 78.558899,266.449036 
	C69.957321,266.185608 63.136581,258.965332 63.010006,251.155579 
	C62.882038,243.259933 70.072845,236.043350 78.783661,235.376785 
	C80.274773,235.262680 81.780540,235.330276 83.279533,235.330307 
	C176.401413,235.332077 269.523285,235.336227 362.645172,235.333527 
	C364.309753,235.333481 365.974304,235.253525 368.190460,234.948318 
	C368.545166,234.434418 368.348297,234.183060 368.151428,233.931702 
	C331.023224,196.823029 293.887268,159.722122 256.775360,122.597176 
	C251.385056,117.204979 249.301407,109.914719 251.576859,105.028389 
	C254.825653,98.051964 261.184265,93.790260 268.287628,95.118423 
	C271.959045,95.804893 275.956970,97.825020 278.603607,100.454308 
	C325.060486,146.606598 371.351379,192.926147 417.619629,239.267960 
	C424.344543,246.003586 424.212921,256.121063 417.417206,262.925385 
	C371.137726,309.263336 324.825684,355.568817 278.491119,401.851746 
	C273.208649,407.128265 265.652283,408.757629 260.209015,406.095123 
	C254.178650,403.145477 249.989700,396.590088 251.277374,389.784271 
	C251.991638,386.009064 254.354904,382.011902 257.106598,379.237000 
	C292.306580,343.740570 327.711548,308.447418 363.064117,273.102295 
	C364.595673,271.570984 366.123657,270.036102 368.053070,268.199341 
	C368.360168,267.490082 368.267517,267.084351 368.174866,266.678650 
	C363.081329,266.632629 357.987823,266.586639 352.125916,266.265015 
	C349.076172,265.660339 346.794952,265.045227 344.513367,265.043701 
	C270.096619,264.993774 195.679840,264.990295 121.263138,265.059143 
	C118.844772,265.061371 116.427177,265.890900 114.009224,266.334778 
z"/>
<path fill="#417460" opacity="1.000000" stroke="none" 
	d="
M114.467827,266.436676 
	C116.427177,265.890900 118.844772,265.061371 121.263138,265.059143 
	C195.679840,264.990295 270.096619,264.993774 344.513367,265.043701 
	C346.794952,265.045227 349.076172,265.660339 351.667053,266.162476 
	C350.487976,266.445374 348.999420,266.651001 347.510803,266.651276 
	C270.979584,266.665955 194.448364,266.663696 117.917137,266.657166 
	C116.920235,266.657074 115.923332,266.579803 114.467827,266.436676 
z"/>
<path fill="#254639" opacity="1.000000" stroke="none" 
	d="
M368.165588,267.021545 
	C368.267517,267.084351 368.360168,267.490082 368.301544,267.973206 
	C368.152283,267.821869 368.154297,267.593170 368.165588,267.021545 
z"/>
<path fill="#20473A" opacity="1.000000" stroke="none" 
	d="
M368.267273,234.203339 
	C368.348297,234.183060 368.545166,234.434418 368.690643,234.846420 
	C368.553864,234.829697 368.468475,234.652328 368.267273,234.203339 
z"/>
</svg>